<svg id="Layer_1" data-name="Layer 1" xmlns="http://www.w3.org/2000/svg" width="1920" height="1080" viewBox="0 0 1920 1080"><defs><style>.cls-1{fill:#f9d7c0;}.cls-2{fill:#bf7351;}.cls-3{fill:#ffa3bc;}.cls-4{fill:#c8d9ff;}.cls-5{fill:#ffd990;}.cls-6{fill:#d596c7;}.cls-7{fill:#ffc533;}.cls-24,.cls-25,.cls-8{fill:#2f0d00;}.cls-9{fill:#e33533;}.cls-10{fill:#fff;}.cls-11{fill:#e467ab;}.cls-12{fill:#009d56;}.cls-13{fill:#00894c;}.cls-14{fill:#9b471d;}.cls-15{fill:#f88e33;}.cls-16{fill:#b92357;}.cls-17{fill:#5d2226;}.cls-18,.cls-26{fill:none;}.cls-18,.cls-21{stroke:#030103;}.cls-18,.cls-21,.cls-24,.cls-25,.cls-26{stroke-miterlimit:10;}.cls-18,.cls-25,.cls-26{stroke-width:4px;}.cls-19{fill:#682629;}.cls-20{fill:#f052a1;}.cls-21{fill:#4a1a1c;}.cls-22{fill:#160900;}.cls-23{fill:gray;}.cls-24,.cls-25,.cls-26{stroke:#2f0d00;}.cls-27{fill:#009c56;}.cls-28{fill:#24724b;}</style></defs><rect class="cls-1" y="-0.647" width="1920" height="1080.704"/><rect class="cls-2" x="209.316" y="141.578" width="1539.301" height="44.684"/><rect class="cls-2" x="209.316" y="627.264" width="1539.301" height="44.684"/><rect class="cls-2" x="209.316" y="303.473" width="1539.301" height="44.684"/><rect class="cls-2" x="209.316" y="465.368" width="1539.301" height="44.684"/><rect class="cls-3" x="367.713" y="542.819" width="99.9" height="83.509"/><rect class="cls-4" x="510.757" y="527.27" width="62.8" height="97.187"/><rect class="cls-5" x="618.551" y="542.819" width="174.803" height="83.509"/><ellipse class="cls-6" cx="866.216" cy="575.863" rx="24.018" ry="48.594"/><rect class="cls-3" x="244.548" y="219.965" width="99.9" height="83.509"/><rect class="cls-4" x="387.591" y="204.415" width="62.8" height="97.187"/><rect class="cls-5" x="495.386" y="219.965" width="174.803" height="83.509"/><ellipse class="cls-6" cx="743.051" cy="253.008" rx="24.018" ry="48.594"/><rect class="cls-3" x="1090.797" y="380.924" width="99.9" height="83.509"/><rect class="cls-4" x="1233.841" y="365.374" width="62.8" height="97.187"/><rect class="cls-5" x="1341.635" y="380.924" width="174.803" height="83.509"/><ellipse class="cls-6" cx="1589.3" cy="413.968" rx="24.018" ry="48.594"/><polygon class="cls-7" points="120.439 135.889 83.621 116.269 48.243 138.941 53.612 93.861 23.328 63.376 63.464 55.135 80.126 13.622 99.563 53.609 140.144 58.437 112.02 91.392 120.439 135.889"/><path class="cls-8" d="M197.5,112.252a6.085,6.085,0,0,1-.423,2,13.678,13.678,0,0,0-1.478,5.414,5.033,5.033,0,0,1-2.958,3.531l-4.121,2.12a7.953,7.953,0,0,1-2.958.706c-1.267.118-2.535.824-3.8.941-3.592.354-4.542.471-7.818-1.412a49.062,49.062,0,0,1-6.338-4.473c-1.373-1.059-1.795-2.825-2.535-4.355a1.138,1.138,0,0,1-.1-.824c.1-.706.423-1.177,1.056-.824.422.118.74.588,1.056.824.423.235.739,1.177,1.374.235.211-.235.634.235.845.353a22.965,22.965,0,0,1,2.64,3.061c2.114,2.589,4.437,4.354,7.923,2.353a2.315,2.315,0,0,0,.845-1.176,17.208,17.208,0,0,1,2.536-3.178,5.453,5.453,0,0,0,1.9-3.414c1.478-5.885,1.267-12.006.844-18.009a23.8,23.8,0,0,1,0-6.121,13.031,13.031,0,0,0-.316-5.768c-.951-2.707-2.43-4.943-4.966-5.884a3.444,3.444,0,0,0-2.852.47c-2.006,1.177-2.218,2.12-3.486,3.649-1.267,1.3-2.64,2.237-2.746,4.238a2.288,2.288,0,0,1-.634,1.766c-1.162-.589-2.324-1.413-3.8-.472-.422.354-.951-.471-1.162-1.059A6.6,6.6,0,0,1,165.494,84c.211-3.059.211-6.12.528-9.181.317-3.884.211-8,.317-12,.1-2.472.1-5.062.317-7.652a59.008,59.008,0,0,0-.528-6.355,2.9,2.9,0,0,0-1.057-2.119,9.165,9.165,0,0,1-1.056-.825,2.307,2.307,0,0,1,1.69-1.3c.317-.117.739-.117.951-.587a1.174,1.174,0,0,1,1.268-.706c4.753-.119,7.182-.354,11.831-.472a20.769,20.769,0,0,1,3.8.235c1.8.237,3.591-.235,5.387-.352a18.775,18.775,0,0,1,6.233,1.059,1.114,1.114,0,0,1,.844,1.412,1.647,1.647,0,0,0,.741,1.766,2.093,2.093,0,0,1,.211,2.119,1.21,1.21,0,0,0,.633,1.883c-2.747.941-5.282,2.119-8.133,2.354a96.6,96.6,0,0,1-10.142.118c-3.169,1.059-6.443.47-9.719,0a.844.844,0,0,0-.739.118c-.211.706.317.706.634.941.212.118.634.354.317.824-1.056,1.531.211,1.3.845,1.413,1.479.235,1.585.118,1.69,1.765.529,5.651,1.373,11.418,1.373,17.068a5.446,5.446,0,0,0,.423,2.119c2.218-1.884,2.218-3.179,4.754-3.885a8.235,8.235,0,0,1,2.852-.589c.528.118,1.162.118,1.373-.588,0-.471.317-.471.528-.353a9.3,9.3,0,0,0,3.592.235,9.593,9.593,0,0,1,7.712,4.473c1.689,2.472,3.169,5.415,2.851,8.711a48.51,48.51,0,0,0,.212,5.532C198.558,98.245,197.818,105.308,197.5,112.252Zm-9.824-21.893c-1.268,3.531,0,7.062-.212,10.593C187.678,97.421,188.311,93.89,187.678,90.359Z"/><path class="cls-9" d="M810.018,756.024c0,32.513-20.913,60.409-50.717,72.324-9.935,3.972-20.858-.931-32.323-.931-12.331,0-24.034,4.559-34.555,0-28.612-12.393-48.486-39.7-48.486-71.395,0-27.094,12-56.442,36.612-65.087,17.646-6.2,29.23,3.787,46.429,3.787,17.033,0,29.444-11.153,46.046-4.03C797.176,701.056,810.018,728.774,810.018,756.024Z"/><path class="cls-8" d="M751.407,724.517c4.132,0,7.48,4.3,7.48,9.606s-3.348,9.612-7.48,9.612-7.484-4.3-7.484-9.612S747.275,724.517,751.407,724.517Z"/><path class="cls-8" d="M725.429,696.43h0a1.953,1.953,0,0,0,1.866-2.4l-1.2-5.442a2.026,2.026,0,0,1,0-.87l1.732-7.843h-2.4a1.929,1.929,0,0,0-1.882,1.606l-1.142,6.312a2.067,2.067,0,0,0,0,.719l1.142,6.312A1.93,1.93,0,0,0,725.429,696.43Z"/><path class="cls-8" d="M740.393,753.952c0,3-3.841,5.43-8.579,5.43s-8.579-2.431-8.579-5.43,3.841,1.96,8.579,1.96S740.393,750.954,740.393,753.952Z"/><ellipse class="cls-8" cx="708.316" cy="734.125" rx="7.481" ry="9.609"/><ellipse class="cls-10" cx="710.932" cy="729.147" rx="2.432" ry="2.499"/><ellipse class="cls-10" cx="753.839" cy="728.723" rx="2.432" ry="2.499"/><ellipse class="cls-11" cx="758.612" cy="744.656" rx="4.64" ry="2.255"/><ellipse class="cls-11" cx="700.834" cy="745.029" rx="4.64" ry="2.255"/><ellipse class="cls-12" cx="719.588" cy="682.733" rx="4.125" ry="8.157" transform="translate(-240.206 432.278) rotate(-28.87)"/><rect class="cls-13" x="678.701" y="140.431" width="56.803" height="79.647" transform="translate(-4.624 19.224) rotate(-1.553)"/><ellipse class="cls-12" cx="652.858" cy="151.56" rx="47.286" ry="44.921" transform="translate(-3.867 17.744) rotate(-1.553)"/><ellipse class="cls-12" cx="706.124" cy="150.117" rx="47.286" ry="44.921" transform="translate(-3.808 19.187) rotate(-1.553)"/><ellipse class="cls-12" cx="660.774" cy="108.111" rx="47.286" ry="44.921" transform="translate(-2.687 17.943) rotate(-1.553)"/><ellipse class="cls-12" cx="704.44" cy="87.994" rx="47.286" ry="44.921" transform="translate(-2.125 19.118) rotate(-1.553)"/><ellipse class="cls-12" cx="760.247" cy="148.65" rx="47.286" ry="44.921" transform="translate(-3.748 20.652) rotate(-1.553)"/><ellipse class="cls-12" cx="752.295" cy="108.343" rx="47.286" ry="44.921" transform="translate(-2.659 20.422) rotate(-1.553)"/><ellipse class="cls-8" cx="681.086" cy="125.656" rx="9.437" ry="11.207" transform="translate(-3.154 18.499) rotate(-1.553)"/><ellipse class="cls-10" cx="677.861" cy="119.912" rx="3.068" ry="2.915" transform="matrix(1, -0.027, 0.027, 1, -3, 18.41)"/><ellipse class="cls-8" cx="727.427" cy="124.4" rx="9.437" ry="11.207" transform="translate(-3.103 19.754) rotate(-1.553)"/><ellipse class="cls-10" cx="724.202" cy="118.656" rx="3.068" ry="2.915" transform="translate(-2.949 19.665) rotate(-1.553)"/><path class="cls-8" d="M716.932,143.489c.1,3.5-4.672,6.461-10.646,6.623s-10.895-2.541-10.99-6.037,4.9,2.154,10.88,1.992S716.837,139.993,716.932,143.489Z"/><path class="cls-8" d="M669.844,109.55c.132-3.5,5.082-6.177,11.055-5.988s10.706,3.176,10.574,6.672-4.755-2.438-10.728-2.627S669.711,113.045,669.844,109.55Z"/><path class="cls-8" d="M716.163,107.494c.133-3.5,5.082-6.176,11.055-5.987s10.707,3.176,10.574,6.672-4.755-2.438-10.728-2.627S716.03,110.99,716.163,107.494Z"/><path class="cls-12" d="M457.549,570.523c4.012,7.04,9.177,13.185,17.871,22.4,10.54,11.178-35.465,26.485-52.779,31.116-18.622,4.981-66.964,14.337-61.018-1.388,2.021-5.346,4.012-20.335,4.053-27.558.132-23.733,9.537-46.734,34.907-53.52S445.72,549.767,457.549,570.523Z"/><ellipse class="cls-12" cx="426.069" cy="637.051" rx="67.751" ry="60.814" transform="translate(-150.143 131.731) rotate(-14.975)"/><ellipse class="cls-14" cx="426.113" cy="639.441" rx="24.65" ry="28.879" transform="matrix(0.966, -0.258, 0.258, 0.966, -150.759, 131.824)"/><ellipse class="cls-8" cx="396.399" cy="571.531" rx="7.066" ry="8.28" transform="translate(-134.221 121.839) rotate(-14.975)"/><ellipse class="cls-10" cx="398.193" cy="567.566" rx="2.72" ry="2.441" transform="translate(-133.135 122.168) rotate(-14.975)"/><ellipse class="cls-8" cx="420.415" cy="565.107" rx="7.066" ry="8.28" transform="translate(-131.745 127.827) rotate(-14.975)"/><ellipse class="cls-10" cx="422.172" cy="561.152" rx="2.72" ry="2.441" transform="matrix(0.966, -0.258, 0.258, 0.966, -130.663, 128.147)"/><path class="cls-8" d="M415.152,578.03a3.721,3.721,0,1,1-7.181,1.92c-.556-2.08,1.972.93,3.954.4S414.6,575.949,415.152,578.03Z"/><rect class="cls-15" x="609.16" y="360.95" width="210.784" height="65.839" rx="23.195" transform="translate(-65.557 154.815) rotate(-11.827)"/><ellipse class="cls-15" cx="621.469" cy="438.154" rx="8.825" ry="8.653" transform="translate(-76.61 136.677) rotate(-11.827)"/><ellipse class="cls-15" cx="616.284" cy="431.951" rx="8.825" ry="8.653" transform="translate(-75.449 135.482) rotate(-11.827)"/><ellipse class="cls-15" cx="613.136" cy="423.769" rx="8.825" ry="8.653" transform="translate(-73.839 134.663) rotate(-11.827)"/><ellipse class="cls-15" cx="610.894" cy="413.063" rx="8.825" ry="8.653" transform="translate(-71.692 133.977) rotate(-11.827)"/><ellipse class="cls-15" cx="608.384" cy="401.077" rx="8.825" ry="8.653" transform="translate(-69.289 133.208) rotate(-11.827)"/><ellipse class="cls-15" cx="611.976" cy="392.82" rx="8.825" ry="8.653" transform="translate(-67.52 133.769) rotate(-11.827)"/><ellipse class="cls-15" cx="810.851" cy="350.043" rx="8.825" ry="8.653" transform="translate(-54.53 173.622) rotate(-11.827)"/><ellipse class="cls-15" cx="819.185" cy="364.427" rx="8.825" ry="8.653" transform="translate(-57.302 175.635) rotate(-11.827)"/><ellipse class="cls-15" cx="815.596" cy="356.338" rx="8.825" ry="8.653" transform="translate(-55.72 174.728) rotate(-11.827)"/><ellipse class="cls-15" cx="821.427" cy="375.133" rx="8.825" ry="8.653" transform="translate(-59.448 176.322) rotate(-11.827)"/><ellipse class="cls-15" cx="823.937" cy="387.119" rx="8.825" ry="8.653" transform="translate(-61.852 177.091) rotate(-11.827)"/><ellipse class="cls-15" cx="820.344" cy="395.377" rx="8.825" ry="8.653" transform="translate(-63.62 176.53) rotate(-11.827)"/><rect class="cls-10" x="657.177" y="377.997" width="120.015" height="25.617" rx="9.499" transform="translate(-64.874 155.289) rotate(-11.827)"/><path class="cls-9" d="M680.276,398.282a1.567,1.567,0,0,0-.449-.582,1.215,1.215,0,0,0-1.017-.186c-.906.19-1.294,1-1.042,2.209.248,1.184.978,1.832,1.873,1.645a1.326,1.326,0,0,0,.959-.7,1.1,1.1,0,0,0,.1-.547l2.121-.112a3.3,3.3,0,0,1-.242,1.184,3.4,3.4,0,0,1-2.606,1.861,3.693,3.693,0,0,1-2.8-.4,3.754,3.754,0,0,1-1.563-2.455,3.434,3.434,0,0,1,2.833-4.346,3.143,3.143,0,0,1,3.764,1.6Z"/><path class="cls-9" d="M687.65,396.4c-.109-.527-.484-.7-1.22-.545-.715.149-1.048.46-1.1,1.031l-2.2.107a2.407,2.407,0,0,1,.66-1.523,4.44,4.44,0,0,1,2.382-1.15,5.006,5.006,0,0,1,2.147-.049,2.01,2.01,0,0,1,1.442,1.757l.62,2.96a12.81,12.81,0,0,0,.4,1.54l-2.168.454-.105-.5a3.365,3.365,0,0,1-2.029,1.111,2.822,2.822,0,0,1-2.06-.2,1.991,1.991,0,0,1-.926-1.361,1.874,1.874,0,0,1,.481-1.772,4.8,4.8,0,0,1,2.173-1.2c.427-.136.76-.217,1.559-.407Zm.347,1.654a6.881,6.881,0,0,0-1.887.626.831.831,0,0,0-.5.858c.082.4.466.555,1.047.433a2.138,2.138,0,0,0,1.175-.681,1.115,1.115,0,0,0,.225-.928Z"/><path class="cls-9" d="M696.007,394.507a3.753,3.753,0,0,0-1.183.031,1.652,1.652,0,0,0-1.206.87,1.607,1.607,0,0,0-.131,1.046l.358,1.71a12.239,12.239,0,0,0,.434,1.626l-2.312.485a12.344,12.344,0,0,0-.257-1.675L691,395.223a10.765,10.765,0,0,0-.437-1.635l2.223-.466.182.866A2.6,2.6,0,0,1,695,392.523a4.6,4.6,0,0,1,1.133-.1Z"/><path class="cls-9" d="M701.725,393.448c-.112-.526-.486-.7-1.223-.545-.715.149-1.048.459-1.1,1.032l-2.2.106a2.408,2.408,0,0,1,.661-1.523,4.451,4.451,0,0,1,2.382-1.151,5.036,5.036,0,0,1,2.147-.048,2.011,2.011,0,0,1,1.441,1.757l.62,2.96a12.949,12.949,0,0,0,.4,1.54l-2.166.454-.106-.5a3.367,3.367,0,0,1-2.029,1.11,2.825,2.825,0,0,1-2.059-.2,2,2,0,0,1-.928-1.363,1.87,1.87,0,0,1,.481-1.77,4.78,4.78,0,0,1,2.175-1.2c.426-.135.759-.217,1.558-.407Zm.345,1.655a6.875,6.875,0,0,0-1.887.625.831.831,0,0,0-.5.858c.082.4.465.555,1.047.433a2.143,2.143,0,0,0,1.174-.68,1.119,1.119,0,0,0,.227-.929Z"/><path class="cls-9" d="M706.038,397.327a11.832,11.832,0,0,0-.257-1.674l-.707-3.376a10.121,10.121,0,0,0-.436-1.636l2.213-.463.1.46a1.217,1.217,0,0,1,.021.155s0,.023.01.055c0,.012.008.033.012.055a2.784,2.784,0,0,1,1.946-1.345,2.46,2.46,0,0,1,1.512.1,1.376,1.376,0,0,1,.573.452,3.148,3.148,0,0,1,2.147-1.445,2.234,2.234,0,0,1,2.937,2l.57,2.719a12.238,12.238,0,0,0,.434,1.626l-2.323.486a11.775,11.775,0,0,0-.258-1.674l-.472-2.258c-.173-.822-.486-1.088-1.122-.955a1.6,1.6,0,0,0-1.117,1.46l.468,2.235a12.208,12.208,0,0,0,.435,1.625l-2.325.487a11.824,11.824,0,0,0-.257-1.674l-.473-2.258a1.3,1.3,0,0,0-.368-.816.745.745,0,0,0-.672-.145,1.666,1.666,0,0,0-1.185,1.472l.464,2.215a12.414,12.414,0,0,0,.436,1.637Z"/><path class="cls-9" d="M719.471,391.665a1.428,1.428,0,0,0,1.8,1.041,1.679,1.679,0,0,0,1.043-.64,1.107,1.107,0,0,0,.219-.63l2.056.13a3.258,3.258,0,0,1-.5,1.283,3.752,3.752,0,0,1-2.442,1.484,3.6,3.6,0,0,1-2.787-.389,3.776,3.776,0,0,1-1.576-2.461,3.452,3.452,0,0,1,2.8-4.352A3.271,3.271,0,0,1,723.972,389a8.046,8.046,0,0,1,.469,1.4,2.125,2.125,0,0,0,.056.216Zm2.587-2.121a1.325,1.325,0,0,0-1.632-.78,1.376,1.376,0,0,0-1.24,1.382Z"/><path class="cls-9" d="M726.392,383.545a11.132,11.132,0,0,0,.257,1.673l1.217,5.81a13.064,13.064,0,0,0,.436,1.637l-2.336.489a10.968,10.968,0,0,0-.257-1.673l-1.217-5.811a10.461,10.461,0,0,0-.436-1.636Z"/><path class="cls-9" d="M733.2,391.64a12.966,12.966,0,0,0-.27-1.739l-1.19-5.679a12.034,12.034,0,0,0-.45-1.7l2.268-.475a14.892,14.892,0,0,0,.282,1.737l.193.921c.034.165.055.263.076.418a3.364,3.364,0,0,1,2.129-1.3c2.033-.426,3.485.6,3.939,2.768a3.951,3.951,0,0,1-.411,2.992,3.217,3.217,0,0,1-2.145,1.342,3.089,3.089,0,0,1-2.363-.317c.006.033.047.173.058.228l.074.351Zm2.863-6.047a1.762,1.762,0,0,0-1.359,2.2,1.815,1.815,0,0,0,2.1,1.551,1.739,1.739,0,0,0,1.213-2.28C737.778,385.943,737.043,385.387,736.061,385.593Z"/><path class="cls-9" d="M745.312,384.32c-.109-.526-.483-.7-1.22-.545-.715.149-1.048.46-1.1,1.032l-2.205.106a2.4,2.4,0,0,1,.661-1.523,4.451,4.451,0,0,1,2.382-1.151,5.036,5.036,0,0,1,2.147-.048,2.013,2.013,0,0,1,1.441,1.757l.62,2.96a13.162,13.162,0,0,0,.4,1.54l-2.167.455-.105-.5a3.356,3.356,0,0,1-2.028,1.11,2.831,2.831,0,0,1-2.061-.2,2,2,0,0,1-.926-1.362,1.873,1.873,0,0,1,.481-1.771,4.8,4.8,0,0,1,2.174-1.2c.427-.135.759-.217,1.558-.407Zm.347,1.655a6.923,6.923,0,0,0-1.887.625.831.831,0,0,0-.5.858c.082.4.465.555,1.046.433a2.142,2.142,0,0,0,1.175-.68,1.117,1.117,0,0,0,.226-.929Z"/><path class="cls-9" d="M753.668,382.433a3.722,3.722,0,0,0-1.182.03,1.655,1.655,0,0,0-1.207.871,1.614,1.614,0,0,0-.13,1.046l.358,1.71a12.069,12.069,0,0,0,.434,1.625l-2.313.484a12.343,12.343,0,0,0-.257-1.673l-.707-3.377a10.838,10.838,0,0,0-.436-1.636l2.223-.465.182.866a2.6,2.6,0,0,1,2.025-1.467,4.725,4.725,0,0,1,1.133-.1Z"/><ellipse class="cls-10" cx="702.069" cy="375.782" rx="3.57" ry="4.417" transform="translate(-62.115 151.872) rotate(-11.827)"/><ellipse class="cls-10" cx="722.67" cy="371.469" rx="3.57" ry="4.417" transform="translate(-60.794 156.003) rotate(-11.827)"/><ellipse class="cls-8" cx="702.535" cy="378.009" rx="1.942" ry="1.905" transform="translate(-62.562 152.015) rotate(-11.827)"/><ellipse class="cls-8" cx="723.136" cy="373.695" rx="1.942" ry="1.905" transform="translate(-61.24 156.146) rotate(-11.827)"/><path class="cls-8" d="M716.75,370.946s3.024-7.758,11.133-2.331"/><path class="cls-8" d="M696.149,375.26s3.024-7.758,11.133-2.331"/><path class="cls-16" d="M1034.4,56.07,1201.85,89.36H997.771S1000.4,72.957,1034.4,56.07Z"/><rect class="cls-16" x="997.771" y="114.116" width="204.079" height="24.755"/><rect class="cls-17" x="997.771" y="138.871" width="204.079" height="24.755"/><rect class="cls-17" x="997.764" y="89.36" width="204.079" height="24.755"/><ellipse class="cls-10" cx="1082.884" cy="103.353" rx="5.947" ry="8.559"/><ellipse class="cls-10" cx="1109.807" cy="103.353" rx="5.947" ry="8.559"/><path class="cls-8" d="M1088.644,107.986s-4.752,9.15-11.879,0"/><path class="cls-8" d="M1115.747,107.986s-4.752,9.15-11.88,0"/><ellipse class="cls-8" cx="1085.1" cy="99.005" rx="2.396" ry="2.595"/><ellipse class="cls-8" cx="1112.203" cy="99.005" rx="2.396" ry="2.595"/><path class="cls-18" d="M1086.4,124.836c0-2.094,4.758-3.791,10.629-3.791s10.629,1.7,10.629,3.791-4.759,7.341-10.629,7.341S1086.4,126.929,1086.4,124.836Z"/><polygon class="cls-10" points="1091.675 125.272 1093.142 122.842 1089.801 123.197 1091.675 125.272"/><polygon class="cls-10" points="1101.08 125.215 1102.939 123.122 1099.595 122.797 1101.08 125.215"/><path class="cls-19" d="M1090.183,637.3l-3.088-1.116c-5.037-1.82-7.788-6.985-6.143-11.535l5.752-23.542,10.628-21.78c1.645-4.55,7.061-6.763,12.1-4.942l3.088,1.116c5.037,1.82,7.788,6.985,6.143,11.535l-11.318,21.53-5.062,23.792C1100.637,636.908,1095.221,639.121,1090.183,637.3Z"/><path class="cls-14" d="M1176.992,600.033c-5.075,14.041-10.838,17.632-29.781,13.206-20.11-4.7-25.59-11.236-44.392-18.032-19.8-7.157-19.746-4.115-38.434-12.277-13.145-5.741-28.046-13.838-23.3-26.975,6.389-17.679,25.924-31.091,43.779-36.28,13.479-3.918,30.267-7.911,45.042-2.571,12.716,4.6,21.761,16.56,29.473,26.037C1172.5,559.261,1184.054,580.494,1176.992,600.033Z"/><ellipse class="cls-15" cx="1122.764" cy="527.158" rx="3.949" ry="4.372" transform="translate(245.367 1403.896) rotate(-70.129)"/><ellipse class="cls-15" cx="1157.773" cy="594.072" rx="3.949" ry="4.372" transform="translate(205.546 1480.99) rotate(-70.129)"/><ellipse class="cls-15" cx="1152.041" cy="553.548" rx="3.949" ry="4.372" transform="translate(239.873 1448.849) rotate(-70.129)"/><ellipse class="cls-15" cx="1131.481" cy="576.941" rx="3.949" ry="4.372" transform="translate(204.302 1444.955) rotate(-70.129)"/><ellipse class="cls-15" cx="1081.737" cy="537.773" rx="3.949" ry="4.372" transform="translate(208.302 1372.318) rotate(-70.129)"/><ellipse class="cls-15" cx="1063.022" cy="561.811" rx="3.949" ry="4.372" transform="matrix(0.34, -0.94, 0.94, 0.34, 173.341, 1370.585)"/><ellipse class="cls-15" cx="1091.231" cy="572.006" rx="3.949" ry="4.372" transform="translate(182.374 1403.844) rotate(-70.129)"/><ellipse class="cls-8" cx="1109.659" cy="545.764" rx="7.085" ry="6.001" transform="translate(219.217 1403.852) rotate(-70.129)"/><ellipse class="cls-8" cx="1127.114" cy="552.073" rx="7.085" ry="6.001" transform="translate(224.806 1424.432) rotate(-70.129)"/><ellipse class="cls-10" cx="1111.862" cy="544.461" rx="2.71" ry="3.001" transform="translate(221.897 1405.064) rotate(-70.129)"/><ellipse class="cls-10" cx="1129.744" cy="550.924" rx="2.71" ry="3.001" transform="translate(227.623 1426.148) rotate(-70.129)"/><path class="cls-8" d="M1119.223,562.948a4.977,4.977,0,1,1-9.36-3.383c.947-2.62,1.476,2.469,4.061,3.4S1120.17,560.327,1119.223,562.948Z"/><rect class="cls-14" x="1102.466" y="310.183" width="12.307" height="154.789" rx="6.154" transform="translate(-62.923 305.467) rotate(-15.261)"/><ellipse class="cls-16" cx="1080.283" cy="283.766" rx="56.387" ry="55.693" transform="translate(-36.636 288.781) rotate(-14.975)"/><ellipse class="cls-20" cx="1080.283" cy="283.766" rx="41.516" ry="41.006" transform="matrix(0.966, -0.258, 0.258, 0.966, -36.636, 288.781)"/><ellipse class="cls-16" cx="1080.283" cy="283.766" rx="26.024" ry="25.704" transform="translate(-36.636 288.781) rotate(-14.975)"/><ellipse class="cls-8" cx="1071.17" cy="274.823" rx="2.507" ry="3.998" transform="translate(-34.635 286.123) rotate(-14.975)"/><ellipse class="cls-8" cx="1083.778" cy="271.451" rx="2.507" ry="3.998" transform="translate(-33.336 289.266) rotate(-14.975)"/><ellipse class="cls-8" cx="1080.958" cy="287.163" rx="4.742" ry="4.969" transform="translate(-37.492 289.071) rotate(-14.975)"/><path class="cls-8" d="M1073.4,268.971c.227.847-1.783-.314-3.739.209s-3.118,2.532-3.344,1.686,1.175-1.958,3.131-2.481S1073.173,268.124,1073.4,268.971Z"/><path class="cls-8" d="M1086.008,265.6c.227.847-1.783-.314-3.739.209s-3.118,2.533-3.345,1.686,1.176-1.957,3.132-2.481S1085.782,264.751,1086.008,265.6Z"/><ellipse class="cls-9" cx="1468.803" cy="590.955" rx="81.66" ry="97.533" transform="translate(533.942 1868.705) rotate(-75.726)"/><rect class="cls-15" x="1392.704" y="500.261" width="12.621" height="99.962" rx="6.31" transform="translate(178.86 -327.956) rotate(14.274)"/><rect class="cls-15" x="1411.472" y="491.927" width="12.621" height="99.962" rx="6.31" transform="translate(177.385 -332.84) rotate(14.274)"/><rect class="cls-15" x="1423.826" y="504.792" width="12.621" height="99.962" rx="6.31" transform="translate(180.938 -335.489) rotate(14.274)"/><rect class="cls-15" x="1441.912" y="495.122" width="12.621" height="99.962" rx="6.31" transform="translate(179.112 -340.247) rotate(14.274)"/><rect class="cls-15" x="1455.178" y="501.272" width="12.621" height="99.962" rx="6.31" transform="translate(181.038 -343.328) rotate(14.274)"/><rect class="cls-15" x="1472.007" y="495.643" width="12.621" height="99.962" rx="6.31" transform="translate(180.17 -347.651) rotate(14.274)"/><rect class="cls-15" x="1485.578" y="501.474" width="12.621" height="99.962" rx="6.31" transform="translate(182.026 -350.817) rotate(14.274)"/><rect class="cls-15" x="1501.552" y="503.16" width="12.621" height="99.962" rx="6.31" transform="translate(182.935 -354.704) rotate(14.274)"/><rect class="cls-15" x="1513.358" y="521.227" width="12.621" height="99.962" rx="6.31" transform="translate(187.755 -357.057) rotate(14.274)"/><rect class="cls-15" x="1527.945" y="523.948" width="12.621" height="99.962" rx="6.31" transform="translate(188.876 -360.57) rotate(14.274)"/><rect class="cls-15" x="1542.804" y="530.899" width="12.621" height="99.962" rx="6.31" transform="translate(191.048 -364.019) rotate(14.274)"/><polygon class="cls-9" points="1530.019 699.286 1364.168 654.784 1374.884 564.54 1563.927 612.636 1530.019 699.286"/><path class="cls-15" d="M1456.124,605.674a15.86,15.86,0,0,0,1.186,3.513,6.872,6.872,0,0,1,.573,3.2c.213,5.637.243,11.992.375,17.608-.013,1.755-.027,3.511.131,5.616a21.386,21.386,0,0,0,2.211-4.256c.973-2.123,1.7-4.307,2.738-6.338,1.11-2.317,2.221-4.636,3.474-6.84,1-1.887,1.929-4.174,3.462-5.773a2.684,2.684,0,0,1,2.99-.844l1.862.855a2.663,2.663,0,0,1,1.1.815c.756,1.109.937,1.079,1.818,0,.018-.072.1-.051.3-.154.371.248.569.834,1.248.548.3-.153.75.114,1.121.361.227.134.336.391.561.526,2.649,1.514,2.3,3.567,1.851,5.671-.072.287-.226.554-.282.769-.544,3.838-2.226,7.387-3.239,11.029a84.015,84.015,0,0,0-1.859,9.01c-.3,2.525-.954,5.111-1.25,7.635-.415,3.336-1.562,6.484-2.222,9.759a34.674,34.674,0,0,1-.7,4.1c-.547,1.467-1.426,1.856-3.126,1.039-.461.114-.39.514-.545.781a1.3,1.3,0,0,1-1.693.18c-1.735-.671-2.72-1.915-3.9-3.057a3.71,3.71,0,0,1-1.059-4.017,40.259,40.259,0,0,1,1.571-6.177,14.641,14.641,0,0,0,.787-3.775c.664-4.649,1.877-9.082,2.623-13.711.669-4.341,1.83-8.558,2.255-12.962l-.1-.637a7.771,7.771,0,0,0-1.78,2.225c-1.027,1.65-2.3,3.239-3.162,4.931-1.745,3.457-3.637,6.8-4.588,10.534-.2.789-.646,1.517-.946,2.358-.473,1.18-1.434,2.235-1.176,3.6.178,1.344-1.127,1.7-1.9,2.346-.236.246-.607,0-.816-.208a3.838,3.838,0,0,0-1.454-.751c-.291.46-.4.891.414,1.1.795.279.784,1.348,1.082,1.882-.437.348-.744.193-1.25.141-1.42-.209-3.031-.7-3.373-1.394-.468-.884-.649-.853-1.436-1.513a6.625,6.625,0,0,1-2.027-3.956,140.453,140.453,0,0,1-1.894-14.706c-.111-2.629-.2-5.329-.4-7.978a18.242,18.242,0,0,0-.275-2.669c-.039,1.519-1.2,2.677-1.24,4.2-.113,1.807-.877,3.447-1.253,5.265-.567,2.914-1.417,5.91-1.9,8.844-.4,2.576-.872,5.131-1.086,7.678a15.9,15.9,0,0,1-.771,4.391,54.617,54.617,0,0,0-1.99,7.141,1.333,1.333,0,0,1-.437,1.037c-.852.625-1.458.623-2.535-.263-.362.06-.389.513-.9.46-.045-.164-.271-.3-.216-.514l.779-4.084,2.283-8.29a48.476,48.476,0,0,0,1.511-7.645,113.7,113.7,0,0,1,3.478-15.71c1.012-3.642,1.963-8.066,3-11.779a5.287,5.287,0,0,0,.319-1.6c.066-.6.546-.779,1.171-.85a4.4,4.4,0,0,1,2.669.756c.624-.07.752-.574,1.15-.778,1.4-.714,1.6-.818,3,.151a3.3,3.3,0,0,1,1.86,2.232.488.488,0,0,0,.515.36c.328-.606.185-1.406.737-1.877C1455.972,605.251,1456.1,605.437,1456.124,605.674Zm18.481,24.813c1.1-1.25,1.62-3.64,1.025-4.709C1474.394,627.222,1474.944,628.815,1474.605,630.487Z"/><ellipse class="cls-10" cx="1424.764" cy="601.484" rx="12.404" ry="11.039" transform="translate(490.557 1833.958) rotate(-75.726)"/><path class="cls-8" d="M1414.613,592.188s14.034-15.807,23.509,5.981"/><ellipse class="cls-8" cx="1424.646" cy="601.948" rx="4.072" ry="4.436" transform="translate(490.019 1834.193) rotate(-75.726)"/><ellipse class="cls-10" cx="1501.964" cy="621.619" rx="12.404" ry="11.039" transform="translate(529.21 1923.946) rotate(-75.726)"/><path class="cls-8" d="M1491.814,612.323s14.033-15.807,23.509,5.981"/><ellipse class="cls-8" cx="1501.964" cy="621.619" rx="4.072" ry="4.436" transform="translate(529.21 1923.946) rotate(-75.726)"/><path class="cls-16" d="M1402.5,153.405c-.38,10.983.073,25.521,4.521,34.206,14.674,28.65,46.446,42.33,69.2,36.645,22.131-5.528,45.938-31.85,47.6-63.178.564-10.651-6.27-22.226-12.324-32.45-12.98-21.919-34.825-60.142-43.012-73.036-10.328-16.267-18.939-34.491-36.86-30.355-17.274,3.987-21.565,21.226-24.627,46.091C1404.982,87.707,1403.18,133.766,1402.5,153.405Z"/><ellipse class="cls-12" cx="1436.291" cy="36.462" rx="6.18" ry="13.169" transform="translate(70.116 481.239) rotate(-19.488)"/><ellipse class="cls-12" cx="1447.156" cy="31.404" rx="5.789" ry="14.06" transform="translate(680.818 1259.399) rotate(-59.277)"/><ellipse class="cls-12" cx="1417.914" cy="39.421" rx="14.455" ry="5.63" transform="translate(598.75 1197.438) rotate(-56.318)"/><ellipse class="cls-12" cx="1426.084" cy="38.287" rx="13.568" ry="5.999" transform="matrix(0.175, -0.985, 0.985, 0.175, 1138.759, 1435.651)"/><ellipse class="cls-8" cx="1431.381" cy="91.575" rx="8.261" ry="9.644" transform="translate(38.705 434.634) rotate(-17.499)"/><ellipse class="cls-10" cx="1426.868" cy="92.167" rx="2.504" ry="2.113" transform="translate(38.318 433.305) rotate(-17.499)"/><ellipse class="cls-8" cx="1455.107" cy="84.095" rx="8.261" ry="9.644" transform="translate(42.052 441.422) rotate(-17.499)"/><ellipse class="cls-10" cx="1451.092" cy="84.529" rx="2.504" ry="2.113" transform="translate(41.735 440.235) rotate(-17.499)"/><ellipse class="cls-20" cx="1425.571" cy="103.518" rx="4.309" ry="1.524" transform="translate(34.844 433.44) rotate(-17.499)"/><ellipse class="cls-20" cx="1466.154" cy="91.661" rx="4.309" ry="1.524" transform="translate(40.288 445.094) rotate(-17.499)"/><path class="cls-18" d="M1441.149,106.834c-.339-1.056,2.6-2.94,6.568-4.208s7.458-1.44,7.8-.384-2.025,4.731-5.992,6S1441.489,107.89,1441.149,106.834Z"/><path class="cls-14" d="M344.969,233.552,453.222,252.6a7.909,7.909,0,0,0,9.11-6.6L492.138,68.2a8.067,8.067,0,0,0-6.439-9.334L377.446,39.819a7.909,7.909,0,0,0-9.11,6.6l-29.807,177.8A8.066,8.066,0,0,0,344.969,233.552Z"/><path class="cls-9" d="M453.745,252.693l-109.3-19.234a7.519,7.519,0,0,1-6-8.7l13.748-82.012a7.374,7.374,0,0,1,8.494-6.151l109.3,19.234a7.52,7.52,0,0,1,6,8.7L462.24,246.542A7.375,7.375,0,0,1,453.745,252.693Z"/><line class="cls-21" x1="395.003" y1="48.994" x2="379.367" y2="139.881"/><line class="cls-21" x1="476.196" y1="100.069" x2="372.986" y2="81.907"/><line class="cls-21" x1="473.023" y1="118.999" x2="369.813" y2="100.837"/><line class="cls-21" x1="469.849" y1="137.929" x2="366.639" y2="119.767"/><line class="cls-21" x1="479.514" y1="80.274" x2="376.304" y2="62.112"/><line class="cls-21" x1="419.289" y1="53.191" x2="403.64" y2="144.152"/><line class="cls-21" x1="442.571" y1="57.408" x2="426.942" y2="148.253"/><line class="cls-21" x1="466.522" y1="62.102" x2="450.973" y2="152.482"/><ellipse class="cls-8" cx="397.902" cy="177.497" rx="4.35" ry="2.494" transform="matrix(0.161, -0.987, 0.987, 0.161, 158.503, 541.529)"/><ellipse class="cls-8" cx="421.241" cy="181.604" rx="4.35" ry="2.494" transform="translate(174.021 568.005) rotate(-80.711)"/><path class="cls-18" d="M414.038,194.56c-.2,1.216-3.33,1.681-6.984,1.038s-6.449-2.15-6.245-3.366,3.677-3.746,7.33-3.1S414.242,193.343,414.038,194.56Z"/><path class="cls-8" d="M395.369,173.689s3.117-3.461,6.161,1.085"/><path class="cls-8" d="M418.708,177.8s3.117-3.462,6.16,1.084"/><path class="cls-22" d="M1876.115,38.7h0a9.052,9.052,0,0,0,5.424,9.157h0a8.935,8.935,0,0,1,.182,16.388h0a8.876,8.876,0,0,0-5.219,9.167h0a8.935,8.935,0,0,1-14.186,8.208h0a9.052,9.052,0,0,0-10.642.011h0a9.03,9.03,0,0,1-14.369-8.181h0a9.053,9.053,0,0,0-5.423-9.157h0A8.935,8.935,0,0,1,1831.7,47.9h0a8.875,8.875,0,0,0,5.219-9.167h0a8.935,8.935,0,0,1,14.186-8.208h0a9.053,9.053,0,0,0,10.643-.011h0A9.029,9.029,0,0,1,1876.115,38.7Z"/><path class="cls-23" d="M1868.363,45.054h0a5.367,5.367,0,0,0,3.2,5.486h0a5.392,5.392,0,0,1,.042,9.859h0a5.429,5.429,0,0,0-3.152,5.536h0a5.392,5.392,0,0,1-8.5,5h0a5.367,5.367,0,0,0-6.351.05h0a5.333,5.333,0,0,1-8.54-4.863h0a5.367,5.367,0,0,0-3.2-5.486h0a5.392,5.392,0,0,1-.042-9.859h0a5.428,5.428,0,0,0,3.152-5.536h0a5.392,5.392,0,0,1,8.5-5h0a5.367,5.367,0,0,0,6.35-.049h0A5.333,5.333,0,0,1,1868.363,45.054Z"/><polygon class="cls-8" points="1575.073 912.8 1558.393 897.543 1615.03 821.951 1631.71 837.207 1575.073 912.8"/><rect class="cls-24" x="313.38" y="861.656" width="1271.593" height="219.823"/><rect class="cls-1" x="356.73" y="882.61" width="1195.551" height="196.267"/><line class="cls-25" x1="419.116" y1="872.896" x2="419.116" y2="1082.687"/><line class="cls-25" x1="494.585" y1="870.487" x2="494.585" y2="1080.278"/><line class="cls-25" x1="563.611" y1="870.487" x2="563.611" y2="1080.278"/><line class="cls-25" x1="633.261" y1="870.487" x2="633.261" y2="1080.278"/><line class="cls-25" x1="702.598" y1="870.487" x2="702.598" y2="1080.278"/><line class="cls-26" x1="343.647" y1="982.459" x2="1558.393" y2="982.459"/><line class="cls-25" x1="765.533" y1="877.94" x2="765.533" y2="1080.057"/><line class="cls-25" x1="841.002" y1="879.205" x2="841.002" y2="1081.322"/><line class="cls-25" x1="916.471" y1="879.205" x2="916.471" y2="1081.322"/><line class="cls-25" x1="985.497" y1="879.205" x2="985.497" y2="1081.322"/><line class="cls-25" x1="1055.146" y1="879.205" x2="1055.146" y2="1081.322"/><line class="cls-25" x1="1124.484" y1="879.205" x2="1124.484" y2="1081.322"/><line class="cls-25" x1="1188.888" y1="875.621" x2="1188.888" y2="1081.485"/><line class="cls-25" x1="1264.357" y1="875.621" x2="1264.357" y2="1081.485"/><line class="cls-25" x1="1339.826" y1="873.257" x2="1339.826" y2="1079.12"/><line class="cls-25" x1="1408.852" y1="873.257" x2="1408.852" y2="1079.12"/><line class="cls-25" x1="1478.501" y1="875.621" x2="1478.501" y2="1081.485"/><line class="cls-25" x1="1547.839" y1="875.621" x2="1547.839" y2="1081.485"/><ellipse class="cls-8" cx="1630.865" cy="821.68" rx="22.263" ry="24.598"/><polygon class="cls-27" points="133.121 1043.78 24.837 1043.78 78.979 939.289 133.121 1043.78"/><polygon class="cls-27" points="78.979 1003.622 25.057 899.555 132.901 899.555 78.979 1003.622"/><polygon class="cls-28" points="78.979 965.829 115.466 1033.128 42.492 1033.128 78.979 965.829"/><polygon class="cls-28" points="78.979 966.334 47.276 913.352 110.682 913.352 78.979 966.334"/><ellipse class="cls-9" cx="1843.976" cy="1001.474" rx="20.389" ry="20.73"/><ellipse class="cls-9" cx="1870.788" cy="1001.474" rx="20.389" ry="20.73"/><path class="cls-9" d="M1857.594,1049.075l21.079-23.585c2.964-3.432,8.208-9.735,9.694-13.994l1.627-4.166c.52-.709-.867-4.877-1.736-4.877l-61.869-.979c-.87,0-2.7,3.7-2.178,4.414l1.31,4.695a148.21,148.21,0,0,0,9.877,14.019l20.5,24.473A1.047,1.047,0,0,0,1857.594,1049.075Z"/><ellipse class="cls-9" cx="1843.707" cy="923.535" rx="20.389" ry="20.73"/><ellipse class="cls-9" cx="1870.52" cy="923.535" rx="20.389" ry="20.73"/><path class="cls-9" d="M1857.325,971.136l21.079-23.585c2.965-3.432,8.209-9.735,9.694-13.994l1.627-4.166c.52-.708-.866-4.877-1.736-4.877l-61.869-.979c-.87,0-2.7,3.705-2.178,4.414l1.31,4.7a148.224,148.224,0,0,0,9.877,14.02l20.5,24.472A1.046,1.046,0,0,0,1857.325,971.136Z"/><ellipse class="cls-9" cx="1843.707" cy="845.596" rx="20.389" ry="20.73"/><ellipse class="cls-9" cx="1870.52" cy="845.596" rx="20.389" ry="20.73"/><path class="cls-9" d="M1857.325,893.2l21.079-23.584c2.965-3.432,8.209-9.735,9.694-13.994l1.627-4.166c.52-.709-.866-4.878-1.736-4.878l-61.869-.979c-.87,0-2.7,3.705-2.178,4.414l1.31,4.7a148.224,148.224,0,0,0,9.877,14.02l20.5,24.472A1.046,1.046,0,0,0,1857.325,893.2Z"/></svg>